inDegrees=yes
name=ik_orientation_Tpose_Zug
DataType=double
version=3
OpenSimVersion=4.3-2021-08-27-4bc7ad9
endheader
time	pelvis_tilt	pelvis_list	pelvis_rotation	pelvis_tx	pelvis_ty	pelvis_tz	hip_flexion_r	hip_adduction_r	hip_rotation_r	knee_angle_r	knee_angle_r_beta	ankle_angle_r	subtalar_angle_r	mtp_angle_r	hip_flexion_l	hip_adduction_l	hip_rotation_l	knee_angle_l	knee_angle_l_beta	ankle_angle_l	subtalar_angle_l	mtp_angle_l	lumbar_extension	lumbar_bending	lumbar_rotation	arm_flex_r	arm_add_r	arm_rot_r	elbow_flex_r	pro_sup_r	wrist_flex_r	wrist_dev_r	arm_flex_l	arm_add_l	arm_rot_l	elbow_flex_l	pro_sup_l	wrist_flex_l	wrist_dev_l
7.5	-0.8006267306137838	-1.808646597954247	148.1145786084246	0	0.9399999999999999	0	26.14672337957276	-8.892857369416593	0	37.9221480407094	0.6618663427390957	-4.665946530514712	0	0	26.14672337957276	-8.892857369416593	0	37.9221480407094	0.6618663427390957	-4.665946530514712	0	0	2.213498849342363	-0.3632760141012152	-3.366068831390307	80.13512296849008	5.786261021390147	78.97908414603737	0.005068100047306328	39.70574944321242	0	0	0	-5.25658482901073	0	50.01077809965	39.70574944321242	0	0
7.51	-0.8140525867211811	-1.808337691633171	148.1008644228606	0	0.9399999999999999	0	26.36404864762124	-8.930684023763927	0	38.14579724574077	0.6657697577363608	-4.680271461821786	0	0	26.36404864762124	-8.930684023763927	0	38.14579724574077	0.6657697577363608	-4.680271461821786	0	0	2.170723600279313	-0.3870387536212698	-3.36219654191721	78.89600765278416	5.43258217230339	79.7098017835534	0.005434235080780588	39.85437519236434	0	0	0	-5.313023676492855	0	50.3118898506073	39.85437519236434	0	0
7.52	-0.8242675903469986	-1.838376754309338	148.1246320028177	0	0.9399999999999999	0	26.36720071243156	-8.931277345819577	0	38.14893476624389	0.6658245177994893	-4.680502695600214	0	0	26.36720071243156	-8.931277345819577	0	38.14893476624389	0.6658245177994893	-4.680502695600214	0	0	2.187193446267463	-0.4187108980777851	-3.416837515064322	78.98720825986065	4.778240242571147	80.07496632703112	0.005627285866634427	39.85666193454095	0	0	0	-5.313818222419036	0	50.31628136297178	39.85666193454095	0	0
7.53	-0.8236375349985798	-1.809966626157806	148.1059093273686	0	0.9399999999999999	0	26.62960581690054	-8.975778434343457	0	38.41504449394852	0.6704690087195205	-4.697160559598378	0	0	26.62960581690054	-8.975778434343457	0	38.41504449394852	0.6704690087195205	-4.697160559598378	0	0	2.183642339799913	-0.3796334298070587	-3.373571020732856	81.07630321593311	2.142583929279551	80.60281248215254	0.005846881762898802	40.03276302685649	0	0	0	-5.382401091602022	0	50.6788667323306	40.03276302685649	0	0
7.54	-0.8255778839181364	-1.823517723484259	148.0876578688233	0	0.9399999999999999	0	26.68378729166855	-8.98336044025603	0	38.47966409939708	0.6715968335959377	-4.699905185834573	0	0	26.68378729166855	-8.98336044025603	0	38.47966409939708	0.6715968335959377	-4.699905185834573	0	0	2.190331142833075	-0.390823143713885	-3.340277422172537	83.32897337138715	-2.932716056886491	81.5657785368136	0.006761203950462656	40.06371443100034	0	0	0	-5.398769113869122	0	50.75245501984112	40.06371443100034	0	0
7.55	-0.8430908078582462	-1.817091196513253	148.0801160617092	0	0.9399999999999999	0	26.70810563367712	-8.987764260572703	0	38.50388234563917	0.6720195217319208	-4.701594137416526	0	0	26.70810563367712	-8.987764260572703	0	38.50388234563917	0.6720195217319208	-4.701594137416526	0	0	2.196475704496619	-0.4040161180130332	-3.324581173383138	86.81362497680061	-7.414117986884951	80.93765056289256	0.007117171655811144	40.08085987892817	0	0	0	-5.404972918630032	0	50.78622966347093	40.08085987892817	0	0
7.56	-0.8402277076936289	-1.829528709682479	148.0808690219934	0	0.9399999999999999	0	26.738218266298	-8.992308950151182	0	38.53848515855709	0.6726234547477903	-4.703272816560721	0	0	26.738218266298	-8.992308950151182	0	38.53848515855709	0.6726234547477903	-4.703272816560721	0	0	3.623395491057449	-0.7499862462991147	-3.316858303604433	89.91881222163228	-9.911440763869257	79.65405525294726	0.006446163843880979	40.09912326693846	0	0	0	-5.413724478451588	0	50.82735332639106	40.09912326693846	0	0
7.57	-0.8465528276022392	-1.841211270059041	148.0763718291714	0	0.9399999999999999	0	26.74568447297951	-8.993667760758695	0	38.5458938578224	0.6727527609432599	-4.703794639094808	0	0	26.74568447297951	-8.993667760758695	0	38.5458938578224	0.6727527609432599	-4.703794639094808	0	0	4.314735911242064	-0.9620001138684176	-3.28436447131835	89.94452112582763	-10.87723699373041	78.89539946819984	0.006488006175553651	40.10440779330811	0	0	0	-5.415625189833555	0	50.83772508394505	40.10440779330811	0	0
